<svg width="68" height="75" viewBox="0 0 68 75" fill="none" xmlns="http://www.w3.org/2000/svg">
<path fill-rule="evenodd" clip-rule="evenodd" d="M7.66661 15.9744H18.4627V6.11555L7.66661 15.9744ZM49.224 12.0144C48.0718 12.0144 47.1361 12.87 47.1361 13.9211C47.1361 14.9733 48.0718 15.8289 49.224 15.8289C50.3763 15.8289 51.3119 14.9733 51.3119 13.9211C51.3119 12.87 50.3763 12.0144 49.224 12.0144ZM52.4459 18.2844L54.0301 19.3623C54.4596 19.6544 55.068 19.5723 55.388 19.18L56.3747 17.9689C56.6948 17.5756 56.606 17.02 56.1752 16.7289L54.5959 15.6556C55.9501 11.88 52.6625 8.39226 48.6424 8.75893C45.9851 9.00226 43.8363 10.9644 43.5711 13.3911C43.127 17.4523 47.8479 20.6933 52.4459 18.2844ZM36.7927 62.0122V66.8378L46.6433 60.1456C48.7568 58.71 50.7169 57.0778 52.4812 55.2867L49.5866 53.3189L36.7927 62.0122ZM36.7927 53.2155V57.9211L49.0074 49.6223C49.3506 49.3889 49.8214 49.3889 50.1657 49.6223L54.7626 52.7456C55.5876 51.7344 56.3553 50.6833 57.0573 49.5989L49.5866 44.5223L36.7927 53.2155ZM36.7927 44.4178V49.1244L49.0074 40.8244C49.3506 40.5911 49.8214 40.5911 50.1657 40.8244L58.7546 46.6611C59.3642 45.4744 59.8972 44.2667 60.3534 43.04L49.5866 35.7244L36.7927 44.4178ZM36.7927 35.62V40.3267L49.0074 32.0278C49.3506 31.7944 49.8214 31.7944 50.1657 32.0278L61.4035 39.6623C61.7503 38.2856 62.0046 36.8889 62.1664 35.4744L49.5866 26.9278L36.7927 35.62ZM36.7927 5.11778V31.5289L49.0074 23.23C49.3506 22.9967 49.8214 22.9967 50.1657 23.23L62.3793 31.5289V5.11778H36.7927ZM31.1897 54.6056H25.6852C25.1486 54.6056 24.7143 54.2078 24.7143 53.7189V52.2089C24.7143 51.72 25.1486 51.3223 25.6852 51.3223H31.1897V47.5344H28.3973C27.8607 47.5344 27.4263 47.1389 27.4263 46.6489V45.1389C27.4263 44.65 27.8607 44.2533 28.3973 44.2533H31.1897V40.4656H25.6852C25.1486 40.4656 24.7143 40.0689 24.7143 39.5789V38.07C24.7143 37.58 25.1486 37.1833 25.6852 37.1833H31.1897V33.3967H28.3973C27.8607 33.3967 27.4263 32.9989 27.4263 32.51V31C27.4263 30.51 27.8607 30.1144 28.3973 30.1144H31.1897V26.3256H25.6852C25.1486 26.3256 24.7143 25.9289 24.7143 25.44V23.93C24.7143 23.4411 25.1486 23.0433 25.6852 23.0433H31.1897V19.2567H28.3973C27.8607 19.2567 27.4263 18.86 27.4263 18.37V16.8611C27.4263 16.37 27.8607 15.9744 28.3973 15.9744H31.1897V12.1867H25.6852C25.1486 12.1867 24.7143 11.7889 24.7143 11.3V9.7911C24.7143 9.3011 25.1486 8.90443 25.6852 8.90443H31.1897V5.11778H22.0569V18.37C22.0569 18.86 21.6225 19.2567 21.086 19.2567H5.60183V31.7144C5.60183 37.3923 7.03513 42.8411 9.88718 47.8856C12.6066 52.6944 16.5816 56.9133 21.3329 60.1422L31.1897 66.8378V61.6744H28.3973C27.8607 61.6744 27.4263 61.2778 27.4263 60.7888V59.2788C27.4263 58.7888 27.8607 58.3933 28.3973 58.3933H31.1897V54.6056ZM35.1696 74.3178C34.4699 74.7933 33.5124 74.7933 32.8127 74.3178L17.9943 64.25C12.5603 60.5578 8.01703 55.7311 4.90829 50.2323C1.68639 44.5333 0 38.1267 0 31.7144V16.83C0 16.1333 0.302966 15.4633 0.843194 14.9711L16.393 0.770001C16.932 0.277778 17.6645 0 18.4273 0H66.0076C67.0978 0 67.9823 0.810004 67.9823 1.80334V31.7144C67.9823 38.1267 66.2959 44.5333 63.0741 50.2323C59.9641 55.7333 55.4196 60.56 49.982 64.2544L35.1696 74.3178Z" fill="#F1BA72"/>
</svg>
