<svg width="154" height="32" viewBox="0 0 154 32" fill="none" xmlns="http://www.w3.org/2000/svg">
<path fill-rule="evenodd" clip-rule="evenodd" d="M123.778 28.2111C124.287 28.2111 124.541 27.9777 124.541 27.5133V1.20108C124.541 0.736666 124.287 0.504416 123.778 0.504416H118.135C117.753 0.504416 117.456 0.659999 117.286 0.968916L111.6 10.23C109.818 13.33 107.993 16.5856 107.059 18.5233L106.931 18.4844C107.228 14.9967 107.398 11.3544 107.398 8.13892V1.20108C107.398 0.736666 107.144 0.504416 106.636 0.504416H101.373C100.907 0.504416 100.652 0.736666 100.652 1.20108V27.5133C100.652 27.9777 100.907 28.2111 101.373 28.2111H107.016C107.398 28.2111 107.695 28.0556 107.909 27.7456L113.425 19.3756C115.291 16.5089 117.328 12.5556 118.346 10.3467L118.474 10.3856C118.093 13.9122 117.795 18.0189 117.795 21.4289V27.5133C117.795 27.9777 118.05 28.2111 118.516 28.2111H123.778ZM70.9768 31.1167C71.4432 31.1167 71.6987 30.8844 71.6987 30.4578V28.2111H87.483V30.4578C87.483 30.8844 87.7376 31.1167 88.2468 31.1167H93.4657C93.9329 31.1167 94.1875 30.8844 94.1875 30.4578V23.1344C94.1875 22.67 93.9329 22.4377 93.4657 22.4377H91.386V1.20108C91.386 0.736666 91.1323 0.504416 90.6231 0.504416H72.6313C72.1641 0.504416 71.9104 0.736666 71.8675 1.24108C70.8491 16.8177 69.5341 21.2744 66.8184 22.4756H65.7142C65.2488 22.4756 64.9942 22.7089 64.9942 23.1344V30.4578C64.9942 30.8844 65.2488 31.1167 65.7142 31.1167H70.9768ZM78.3603 6.27892H84.5556V22.4756H75.0076C77.0024 20.0344 77.894 14.2989 78.3603 6.27892ZM41.768 0.504416C41.3008 0.504416 41.0462 0.736666 41.0462 1.20108V27.5133C41.0462 27.9777 41.3008 28.2111 41.768 28.2111H47.1146C47.5819 28.2111 47.8356 27.9777 47.8356 27.5133V20.1511H53.0133C59.6749 20.1511 63.8763 16.3533 63.8763 10.3089C63.8763 4.30108 59.6749 0.504416 53.0133 0.504416H41.768ZM47.8356 14.3777V6.24H52.0798C55.3038 6.24 56.8752 7.59558 56.8752 10.3089C56.8752 13.0589 55.3038 14.3777 52.0798 14.3777H47.8356ZM34.0734 18.29V10.23C34.0734 3.60442 29.1521 0 22.3198 0C15.4876 0 10.5653 3.64333 10.5653 10.3856L10.4384 11.2389H6.78917V1.20108C6.78917 0.736666 6.49168 0.504416 6.02537 0.504416H0.762888C0.254326 0.504416 0 0.736666 0 1.20108V27.5133C0 27.9777 0.254326 28.2111 0.762888 28.2111H6.02537C6.49168 28.2111 6.78917 27.9777 6.78917 27.5133V17.0122H10.3956L10.5653 18.1744C10.5653 24.9933 15.4876 28.7144 22.3198 28.7144C29.1521 28.7144 34.0734 25.0333 34.0734 18.29ZM17.5244 18.1744V10.4244C17.5244 7.28558 19.5192 5.92892 22.3198 5.92892C25.1624 5.92892 27.1563 7.28558 27.1563 10.4244V18.1744C27.1563 21.2356 25.1624 22.7467 22.3198 22.7467C19.5192 22.7467 17.5244 21.2356 17.5244 18.1744ZM153.538 25.9244C153.835 25.7311 153.835 25.42 153.581 25.0722L150.865 21.3522C150.61 20.9644 150.27 20.9256 149.847 21.1977C148.149 22.2433 146.069 22.8244 143.948 22.8244C140.468 22.8244 138.431 21.1189 138.431 18.1367V10.5411C138.431 7.75108 140.341 5.89108 143.905 5.89108C145.773 5.89108 147.767 6.35558 149.336 7.28558C149.762 7.51892 150.101 7.48 150.398 7.09225L153.071 3.37225C153.326 3.02333 153.284 2.71333 152.859 2.48108C150.441 0.929999 147.174 0 143.777 0C136.48 0 131.515 3.56558 131.515 10.3089V18.4077C131.515 25.1489 136.437 28.7533 143.905 28.7533C147.853 28.7533 151.077 27.59 153.538 25.9244Z" fill="white"/>
</svg>
